<svg width="24" height="24" viewBox="0 0 24 24" fill="none" xmlns="http://www.w3.org/2000/svg">
<path d="M22.5 11.25V18.75C22.5 20.8176 20.8176 22.5 18.75 22.5H5.25C3.18244 22.5 1.5 20.8176 1.5 18.75V5.25005C1.5 3.18248 3.18244 1.50005 5.25 1.50005H12.75C13.1642 1.50005 13.5 1.83586 13.5 2.25005C13.5 2.66423 13.1642 3.00005 12.75 3.00005H5.25C4.00931 3.00005 3 4.00936 3 5.25005V18.75C3 19.9907 4.00931 21 5.25 21H18.75C19.9907 21 21 19.9907 21 18.75V11.25C21 10.8359 21.3358 10.5 21.75 10.5C22.1642 10.5 22.5 10.8359 22.5 11.25ZM6.96975 12.2198L17.4697 1.7198C17.7628 1.42673 18.2374 1.42673 18.5303 1.7198L22.2803 5.4698C22.5733 5.76286 22.5733 6.23742 22.2803 6.5303L11.7802 17.0303C11.6396 17.1709 11.4489 17.25 11.25 17.25H7.5C7.08581 17.25 6.75 16.9142 6.75 16.5V12.75C6.75 12.5511 6.82913 12.3604 6.96975 12.2198ZM16.8105 4.50005L19.5 7.18955L20.6895 6.00005L18 3.31055L16.8105 4.50005ZM8.25 15.75H10.9395L18.4395 8.25005L15.75 5.56055L8.25 13.0605V15.75Z" fill="#6157A0"/>
</svg>
